<?xml version="1.0" encoding="UTF-8"?>
<svg version="1.1" xmlns="http://www.w3.org/2000/svg" width="400" height="400">
<path d="M0 0 C132 0 264 0 400 0 C400 132 400 264 400 400 C268 400 136 400 0 400 C0 268 0 136 0 0 Z " fill="#FEFEFE" transform="translate(0,0)"/>
<path d="M0 0 C20.48627006 21.53279759 14.01611903 80.43280828 13.39907837 106.9463501 C12.98154891 120.61646026 11.51120872 133.7475075 8 147 C7.62319092 148.43424316 7.62319092 148.43424316 7.23876953 149.89746094 C5.31591876 156.95894351 3.24509872 163.74262162 -0.2109375 170.2109375 C-2.37250136 174.42693983 -2.0889492 176.77732827 -0.8828125 181.296875 C-0.59148437 182.18890625 -0.30015625 183.0809375 0 184 C0.31195313 184.97453125 0.62390625 185.9490625 0.9453125 186.953125 C5.98346598 200.69354358 15.34819737 207.77167043 28 214 C28.99 214.33 29.98 214.66 31 215 C31 215.66 31 216.32 31 217 C28.86745754 218.7192126 26.74179943 220.30983086 24.5 221.875 C23.8615918 222.32536621 23.22318359 222.77573242 22.56542969 223.23974609 C11.40493319 231 11.40493319 231 7 231 C7 231.66 7 232.32 7 233 C7.70511719 233.25523437 8.41023438 233.51046875 9.13671875 233.7734375 C12.2696348 235.11550522 14.95714425 236.76729867 17.8125 238.625 C18.78832031 239.25664062 19.76414062 239.88828125 20.76953125 240.5390625 C21.50558594 241.02117187 22.24164063 241.50328125 23 242 C18.55873655 247.20699853 13.04125446 249.92118205 7 253 C7 253.66 7 254.32 7 255 C8.98075027 256.36176581 10.98079663 257.69593116 13 259 C13 259.33 13 259.66 13 260 C11.90945313 259.66548828 11.90945313 259.66548828 10.796875 259.32421875 C7.20428221 258.57345897 4.63292427 258.36475724 1 259 C-2.46193206 261.80636516 -5.0774385 264.90576628 -7.88671875 268.33984375 C-10.98736346 272.12485147 -14.47448408 275.21681476 -18.25 278.3125 C-18.82355225 278.7859082 -19.39710449 279.25931641 -19.98803711 279.74707031 C-21.31941695 280.83866686 -22.65877143 281.92052733 -24 283 C-20.58407378 286.42817982 -20.58407378 286.42817982 -17.12109375 289.80859375 C-13.51126195 293.30116883 -10.6159583 296.70982838 -8 301 C-11.85832634 301 -12.45149693 299.93228347 -15.1875 297.3125 C-21.05290619 291.85703966 -21.05290619 291.85703966 -28 288 C-31.50167149 288.49739652 -34.11636087 289.97365899 -37 292 C-37.33 292.99 -37.66 293.98 -38 295 C-40.11938477 295.85620117 -40.11938477 295.85620117 -42.94140625 296.54296875 C-43.98876953 296.80819336 -45.03613281 297.07341797 -46.11523438 297.34667969 C-47.25283203 297.62415039 -48.39042969 297.90162109 -49.5625 298.1875 C-61.71020873 301.29011779 -73.51795953 305.04832865 -85.36767578 309.12524414 C-87.99898766 309.99966358 -90.64337269 310.79640687 -93.3046875 311.57421875 C-97.03722493 312.67751506 -100.56591121 313.97277367 -104.125 315.5625 C-105.30320313 316.07167969 -106.48140625 316.58085937 -107.6953125 317.10546875 C-110.05560348 318.13588149 -112.40532563 319.18466434 -114.74902344 320.25244141 C-138.13643123 330.88550919 -138.13643123 330.88550919 -150 329 C-151.43488666 328.81112825 -152.86978309 328.62233063 -154.3046875 328.43359375 C-160.28843843 327.5542935 -165.76891127 326.67650252 -171.26171875 324.046875 C-176.64944798 321.52986128 -182.1783846 320.55781232 -188 319.5 C-195.53591517 318.13069211 -202.15183437 316.46211956 -209 313 C-209.7429834 312.6380957 -210.4859668 312.27619141 -211.25146484 311.90332031 C-222.23262496 306.48878707 -232.24232717 300.37498528 -242 293 C-244.6600504 290.78557962 -244.6600504 290.78557962 -246.8671875 291.12890625 C-249.7169884 292.29283592 -251.75395172 293.98050045 -254.125 295.9375 C-254.99382812 296.64777344 -255.86265625 297.35804688 -256.7578125 298.08984375 C-259.01170894 299.9585703 -259.01170894 299.9585703 -261 302 C-261.99 302 -262.98 302 -264 302 C-262.58884686 298.87729974 -260.889376 296.50346319 -258.625 293.9375 C-258.03976562 293.26589844 -257.45453125 292.59429687 -256.8515625 291.90234375 C-255.0239296 290.02458589 -253.13635135 288.51050393 -251 287 C-252.37822856 283.87327251 -253.96245871 281.84197456 -256.4375 279.5 C-258.8807324 277.13311862 -261.07887145 274.82518905 -263 272 C-269.99530367 272.27981215 -275.62648295 274.79201828 -281.92578125 277.625 C-285 279 -285 279 -288 280 C-286.50115053 276.02059848 -284.25287411 274.56536515 -280.6875 272.375 C-279.27017578 271.48941406 -279.27017578 271.48941406 -277.82421875 270.5859375 C-274.13184905 268.51249062 -271.26899377 267 -267 267 C-269.74841622 261.74216027 -272.32718348 260.03917599 -277.8046875 257.87890625 C-280.3834641 256.8464779 -282.66903523 255.50384824 -285 254 C-281.95797381 249.74116333 -278.5160461 246.61396757 -274 244 C-273.34 244 -272.68 244 -272 244 C-272 243.34 -272 242.68 -272 242 C-273.08667969 241.83757812 -273.08667969 241.83757812 -274.1953125 241.671875 C-279.0138478 240.51757406 -282.8718 237.6602531 -287 235 C-288.09054687 234.30583984 -288.09054687 234.30583984 -289.203125 233.59765625 C-291.125 232.3125 -291.125 232.3125 -294 230 C-294 229.01 -294 228.02 -294 227 C-292.91460937 226.48050781 -291.82921875 225.96101562 -290.7109375 225.42578125 C-289.26541192 224.72179152 -287.8201113 224.01733975 -286.375 223.3125 C-285.66214844 222.97283203 -284.94929688 222.63316406 -284.21484375 222.28320312 C-277.33346468 218.90564551 -271.80165946 215.5265703 -269 208 C-268.58073084 205.34000093 -268.27233413 202.79791657 -268.0625 200.125 C-267.10905368 190.32640636 -264.97296165 180.9599883 -261.875 171.6015625 C-260.15186 164.50899516 -260.95574294 158.59072599 -262.77954102 151.60913086 C-273.56297815 108.81521953 -268.42877976 44.0523967 -246.17578125 5.6640625 C-243.97994822 2.55633867 -242.71019149 1.17392445 -238.9375 0.25 C-228.24951764 0.85119901 -216.01413209 19.41360665 -209.2565918 26.94238281 C-205.04603821 31.69659231 -201.07266613 36.60253778 -197.1875 41.625 C-196.58583008 42.40045166 -195.98416016 43.17590332 -195.36425781 43.97485352 C-189.32507511 51.80155082 -183.48447258 59.77329112 -178 68 C-175.54351265 68.64615083 -175.54351265 68.64615083 -172.65234375 68.84375 C-171.57146484 68.95589844 -170.49058594 69.06804687 -169.37695312 69.18359375 C-168.24193359 69.28800781 -167.10691406 69.39242187 -165.9375 69.5 C-158.1869171 70.23042143 -151.29762333 71.21995302 -144 74 C-147.82458254 69.99259803 -151.91519598 66.61024674 -156.3125 63.25 C-158.56608722 61.52547672 -160.7905772 59.78188902 -163 58 C-163 57.67 -163 57.34 -163 57 C-140.62296876 55.97977061 -121.98570127 60.62253663 -101.875 70.25 C-101.10929688 70.61351563 -100.34359375 70.97703125 -99.5546875 71.3515625 C-97.70183621 72.23166686 -95.85072408 73.11543118 -94 74 C-93.66355469 73.18789062 -93.66355469 73.18789062 -93.3203125 72.359375 C-91.58538841 69.25909646 -89.29404139 66.81993522 -86.875 64.25 C-86.35583008 63.6936084 -85.83666016 63.1372168 -85.30175781 62.56396484 C-80.86162653 57.84194108 -76.32176985 53.21932263 -71.75 48.625 C-71.10144043 47.97176758 -70.45288086 47.31853516 -69.78466797 46.64550781 C-65.35312969 42.22858024 -60.74510494 38.07609851 -56 34 C-55.02417969 33.14277344 -54.04835938 32.28554687 -53.04296875 31.40234375 C-41.27809833 21.24689473 -28.88421971 11.72034767 -15.5625 3.6875 C-14.65008545 3.13715088 -14.65008545 3.13715088 -13.71923828 2.57568359 C-8.94520531 -0.21154716 -5.39588485 -1.8885597 0 0 Z " fill="#FDFDFD" transform="translate(333,52)"/>
<path d="M0 0 C20.48627006 21.53279759 14.01611903 80.43280828 13.39907837 106.9463501 C12.98154891 120.61646026 11.51120872 133.7475075 8 147 C7.62319092 148.43424316 7.62319092 148.43424316 7.23876953 149.89746094 C5.31591876 156.95894351 3.24509872 163.74262162 -0.2109375 170.2109375 C-2.37250136 174.42693983 -2.0889492 176.77732827 -0.8828125 181.296875 C-0.59148437 182.18890625 -0.30015625 183.0809375 0 184 C0.31195313 184.97453125 0.62390625 185.9490625 0.9453125 186.953125 C5.98346598 200.69354358 15.34819737 207.77167043 28 214 C28.99 214.33 29.98 214.66 31 215 C31 215.66 31 216.32 31 217 C28.86745754 218.7192126 26.74179943 220.30983086 24.5 221.875 C23.8615918 222.32536621 23.22318359 222.77573242 22.56542969 223.23974609 C11.40493319 231 11.40493319 231 7 231 C7 231.66 7 232.32 7 233 C7.70511719 233.25523437 8.41023438 233.51046875 9.13671875 233.7734375 C12.2696348 235.11550522 14.95714425 236.76729867 17.8125 238.625 C18.78832031 239.25664062 19.76414062 239.88828125 20.76953125 240.5390625 C21.50558594 241.02117187 22.24164063 241.50328125 23 242 C18.55873655 247.20699853 13.04125446 249.92118205 7 253 C7 253.66 7 254.32 7 255 C8.98075027 256.36176581 10.98079663 257.69593116 13 259 C13 259.33 13 259.66 13 260 C11.90945313 259.66548828 11.90945313 259.66548828 10.796875 259.32421875 C7.20428221 258.57345897 4.63292427 258.36475724 1 259 C-2.46193206 261.80636516 -5.0774385 264.90576628 -7.88671875 268.33984375 C-10.98736346 272.12485147 -14.47448408 275.21681476 -18.25 278.3125 C-18.82355225 278.7859082 -19.39710449 279.25931641 -19.98803711 279.74707031 C-21.31941695 280.83866686 -22.65877143 281.92052733 -24 283 C-20.58407378 286.42817982 -20.58407378 286.42817982 -17.12109375 289.80859375 C-13.51126195 293.30116883 -10.6159583 296.70982838 -8 301 C-11.85832634 301 -12.45149693 299.93228347 -15.1875 297.3125 C-21.05290619 291.85703966 -21.05290619 291.85703966 -28 288 C-31.50167149 288.49739652 -34.11636087 289.97365899 -37 292 C-37.33 292.99 -37.66 293.98 -38 295 C-40.11938477 295.85620117 -40.11938477 295.85620117 -42.94140625 296.54296875 C-43.98876953 296.80819336 -45.03613281 297.07341797 -46.11523438 297.34667969 C-47.25283203 297.62415039 -48.39042969 297.90162109 -49.5625 298.1875 C-61.71020873 301.29011779 -73.51795953 305.04832865 -85.36767578 309.12524414 C-87.99898766 309.99966358 -90.64337269 310.79640687 -93.3046875 311.57421875 C-97.03722493 312.67751506 -100.56591121 313.97277367 -104.125 315.5625 C-105.30320313 316.07167969 -106.48140625 316.58085937 -107.6953125 317.10546875 C-110.05560348 318.13588149 -112.40532563 319.18466434 -114.74902344 320.25244141 C-138.13643123 330.88550919 -138.13643123 330.88550919 -150 329 C-151.43488666 328.81112825 -152.86978309 328.62233063 -154.3046875 328.43359375 C-160.28843843 327.5542935 -165.76891127 326.67650252 -171.26171875 324.046875 C-176.64944798 321.52986128 -182.1783846 320.55781232 -188 319.5 C-195.53591517 318.13069211 -202.15183437 316.46211956 -209 313 C-209.7429834 312.6380957 -210.4859668 312.27619141 -211.25146484 311.90332031 C-222.23262496 306.48878707 -232.24232717 300.37498528 -242 293 C-244.6600504 290.78557962 -244.6600504 290.78557962 -246.8671875 291.12890625 C-249.7169884 292.29283592 -251.75395172 293.98050045 -254.125 295.9375 C-254.99382812 296.64777344 -255.86265625 297.35804688 -256.7578125 298.08984375 C-259.01170894 299.9585703 -259.01170894 299.9585703 -261 302 C-261.99 302 -262.98 302 -264 302 C-262.58884686 298.87729974 -260.889376 296.50346319 -258.625 293.9375 C-258.03976562 293.26589844 -257.45453125 292.59429687 -256.8515625 291.90234375 C-255.0239296 290.02458589 -253.13635135 288.51050393 -251 287 C-252.37822856 283.87327251 -253.96245871 281.84197456 -256.4375 279.5 C-258.8807324 277.13311862 -261.07887145 274.82518905 -263 272 C-269.99530367 272.27981215 -275.62648295 274.79201828 -281.92578125 277.625 C-285 279 -285 279 -288 280 C-286.50115053 276.02059848 -284.25287411 274.56536515 -280.6875 272.375 C-279.27017578 271.48941406 -279.27017578 271.48941406 -277.82421875 270.5859375 C-274.13184905 268.51249062 -271.26899377 267 -267 267 C-269.74841622 261.74216027 -272.32718348 260.03917599 -277.8046875 257.87890625 C-280.3834641 256.8464779 -282.66903523 255.50384824 -285 254 C-281.95797381 249.74116333 -278.5160461 246.61396757 -274 244 C-273.34 244 -272.68 244 -272 244 C-272 243.34 -272 242.68 -272 242 C-273.08667969 241.83757812 -273.08667969 241.83757812 -274.1953125 241.671875 C-279.0138478 240.51757406 -282.8718 237.6602531 -287 235 C-288.09054687 234.30583984 -288.09054687 234.30583984 -289.203125 233.59765625 C-291.125 232.3125 -291.125 232.3125 -294 230 C-294 229.01 -294 228.02 -294 227 C-292.91460937 226.48050781 -291.82921875 225.96101562 -290.7109375 225.42578125 C-289.26541192 224.72179152 -287.8201113 224.01733975 -286.375 223.3125 C-285.66214844 222.97283203 -284.94929688 222.63316406 -284.21484375 222.28320312 C-277.33346468 218.90564551 -271.80165946 215.5265703 -269 208 C-268.58073084 205.34000093 -268.27233413 202.79791657 -268.0625 200.125 C-267.10905368 190.32640636 -264.97296165 180.9599883 -261.875 171.6015625 C-260.15186 164.50899516 -260.95574294 158.59072599 -262.77954102 151.60913086 C-273.56297815 108.81521953 -268.42877976 44.0523967 -246.17578125 5.6640625 C-243.97994822 2.55633867 -242.71019149 1.17392445 -238.9375 0.25 C-228.24951764 0.85119901 -216.01413209 19.41360665 -209.2565918 26.94238281 C-205.04603821 31.69659231 -201.07266613 36.60253778 -197.1875 41.625 C-196.58583008 42.40045166 -195.98416016 43.17590332 -195.36425781 43.97485352 C-189.32507511 51.80155082 -183.48447258 59.77329112 -178 68 C-175.54351265 68.64615083 -175.54351265 68.64615083 -172.65234375 68.84375 C-171.57146484 68.95589844 -170.49058594 69.06804687 -169.37695312 69.18359375 C-168.24193359 69.28800781 -167.10691406 69.39242187 -165.9375 69.5 C-158.1869171 70.23042143 -151.29762333 71.21995302 -144 74 C-147.82458254 69.99259803 -151.91519598 66.61024674 -156.3125 63.25 C-158.56608722 61.52547672 -160.7905772 59.78188902 -163 58 C-163 57.67 -163 57.34 -163 57 C-140.62296876 55.97977061 -121.98570127 60.62253663 -101.875 70.25 C-101.10929688 70.61351563 -100.34359375 70.97703125 -99.5546875 71.3515625 C-97.70183621 72.23166686 -95.85072408 73.11543118 -94 74 C-93.66355469 73.18789062 -93.66355469 73.18789062 -93.3203125 72.359375 C-91.58538841 69.25909646 -89.29404139 66.81993522 -86.875 64.25 C-86.35583008 63.6936084 -85.83666016 63.1372168 -85.30175781 62.56396484 C-80.86162653 57.84194108 -76.32176985 53.21932263 -71.75 48.625 C-71.10144043 47.97176758 -70.45288086 47.31853516 -69.78466797 46.64550781 C-65.35312969 42.22858024 -60.74510494 38.07609851 -56 34 C-55.02417969 33.14277344 -54.04835938 32.28554687 -53.04296875 31.40234375 C-41.27809833 21.24689473 -28.88421971 11.72034767 -15.5625 3.6875 C-14.65008545 3.13715088 -14.65008545 3.13715088 -13.71923828 2.57568359 C-8.94520531 -0.21154716 -5.39588485 -1.8885597 0 0 Z M-12.625 9.875 C-13.23601562 10.23980469 -13.84703125 10.60460937 -14.4765625 10.98046875 C-16.0215881 11.92886616 -17.51580728 12.95897468 -19 14 C-19 14.66 -19 15.32 -19 16 C-20.98 16.66 -22.96 17.32 -25 18 C-25 18.66 -25 19.32 -25 20 C-25.99 20 -26.98 20 -28 20 C-29.13689161 21.10244035 -30.26465319 22.21567104 -31.34765625 23.37109375 C-35.75215871 27.713121 -40.88022932 31.40133961 -45.8125 35.12109375 C-46.534375 35.74113281 -47.25625 36.36117187 -48 37 C-48 37.66 -48 38.32 -48 39 C-48.70125 39.185625 -49.4025 39.37125 -50.125 39.5625 C-53.52662304 41.26331152 -55.10467562 43.25984322 -57.375 46.24609375 C-59 48 -59 48 -61.31640625 49.32421875 C-64.82456114 51.51490063 -67.22199801 54.28746381 -69.9375 57.375 C-72.89477692 60.71767688 -75.79355672 63.92335437 -79.26171875 66.74609375 C-81.99780644 68.99819446 -83.45968461 70.83379614 -85 74 C-85 74.66 -85 75.32 -85 76 C-85.66 76 -86.32 76 -87 76 C-87 76.66 -87 77.32 -87 78 C-87.66 78 -88.32 78 -89 78 C-89 78.66 -89 79.32 -89 80 C-89.99 80.33 -90.98 80.66 -92 81 C-93.57862068 83.18234043 -93.57862068 83.18234043 -95 85.8125 C-96.83493087 89.04752136 -98.70513814 92.06995316 -101 95 C-100.855625 93.80375 -100.71125 92.6075 -100.5625 91.375 C-100.43294922 90.28251953 -100.43294922 90.28251953 -100.30078125 89.16796875 C-100 87 -100 87 -99.25 83.6875 C-98.69565613 81.03777589 -98.69565613 81.03777589 -100.171875 79.48046875 C-102.33653821 77.72746158 -104.44348324 76.73232848 -107 75.625 C-112.90297965 73.04632994 -112.90297965 73.04632994 -115.78125 71.671875 C-124.65051471 67.44113379 -133.08505412 64.43877665 -143 65 C-142.44061176 68.40718291 -141.57065483 69.65998221 -138.8125 71.6875 C-135.8231812 74.06544036 -133.82576867 76.49855761 -131.76171875 79.70703125 C-131.23924561 80.51245361 -130.71677246 81.31787598 -130.1784668 82.14770508 C-129.78957275 82.7589624 -129.40067871 83.37021973 -129 84 C-129.61818604 83.82871582 -130.23637207 83.65743164 -130.87329102 83.48095703 C-151.61607663 77.71976114 -151.61607663 77.71976114 -173 76 C-172.35075719 79.75194003 -171.29095637 83.1316451 -169.9375 86.6875 C-168 91.78291815 -168 91.78291815 -168 94 C-173.15362889 87.24176138 -178.01971296 80.30138067 -182.859375 73.31640625 C-185.25406338 69.87276248 -187.62901799 66.46372751 -190.25 63.1875 C-192 61 -192 61 -193.625 58.1875 C-194.07875 57.465625 -194.5325 56.74375 -195 56 C-195.66 56 -196.32 56 -197 56 C-197.23460937 55.46632812 -197.46921875 54.93265625 -197.7109375 54.3828125 C-199.37718313 51.30278269 -201.47190168 48.62229359 -203.625 45.875 C-204.0686792 45.30458984 -204.5123584 44.73417969 -204.96948242 44.14648438 C-206.30907559 42.42788787 -207.65411748 40.71367321 -209 39 C-209.74636719 38.04351562 -210.49273437 37.08703125 -211.26171875 36.1015625 C-214.64936913 31.80408602 -218.08524592 27.83307515 -222 24 C-223.87640098 22.14725113 -225.75137683 20.29305793 -227.625 18.4375 C-228.10195312 17.96892578 -228.57890625 17.50035156 -229.0703125 17.01757812 C-231.11475622 14.98733193 -232.96594652 13.05024146 -234.5859375 10.66015625 C-235.05257812 10.11230469 -235.51921875 9.56445312 -236 9 C-237.32 9 -238.64 9 -240 9 C-248.45329404 25.65478783 -251.59331107 43.80118889 -255 62 C-255.18111328 62.92176025 -255.36222656 63.84352051 -255.54882812 64.79321289 C-260.79649591 92.10205654 -260.9674488 122.51124761 -257 150 C-256.01 150 -255.02 150 -254 150 C-253.70754395 149.44014404 -253.41508789 148.88028809 -253.11376953 148.3034668 C-251.78591523 145.76389935 -250.45548744 143.22568886 -249.125 140.6875 C-248.66480469 139.80642578 -248.20460937 138.92535156 -247.73046875 138.01757812 C-247.06337891 136.74624023 -247.06337891 136.74624023 -246.3828125 135.44921875 C-245.97434082 134.66893311 -245.56586914 133.88864746 -245.14501953 133.0847168 C-244 131 -244 131 -242 128 C-242.99 127.67 -243.98 127.34 -245 127 C-245 126.34 -245 125.68 -245 125 C-246.9600281 123.36323743 -246.9600281 123.36323743 -249 122 C-248.70192061 118.92908909 -248.01448769 118.01330703 -245.69921875 115.88671875 C-244.70535156 115.16097656 -243.71148437 114.43523437 -242.6875 113.6875 C-242.15930664 113.30086182 -241.63111328 112.91422363 -241.08691406 112.51586914 C-235.63225561 108.59724637 -229.87980146 105.24223095 -224 102 C-224.33 100.68 -224.66 99.36 -225 98 C-225.78375 97.9175 -226.5675 97.835 -227.375 97.75 C-228.674375 97.37875 -228.674375 97.37875 -230 97 C-230.28875 96.4121875 -230.5775 95.824375 -230.875 95.21875 C-232.31825734 92.37232581 -234.21001923 90.81998351 -236.625 88.75 C-237.44226563 88.04359375 -238.25953125 87.3371875 -239.1015625 86.609375 C-240.04128906 85.81273437 -240.04128906 85.81273437 -241 85 C-230.42308574 84.78632496 -220.41755521 84.93857565 -210 87 C-211.43543181 78.96158189 -214.28171096 71.56577897 -217.22851562 63.98828125 C-217.93706458 62.16219813 -218.63320685 60.33131372 -219.328125 58.5 C-221.30212242 53.30263971 -223.35213197 48.16386769 -225.5625 43.0625 C-228.32555756 36.53084177 -230.18707648 29.8465715 -232 23 C-228.4169931 30.06165437 -224.91396688 37.0828168 -222.0390625 44.46875 C-220.29989316 48.9147468 -218.47469041 52.91138105 -216 57 C-215.28282697 58.92077645 -214.56674486 60.84197439 -213.85864258 62.76611328 C-212.43986637 66.45727118 -210.76790141 70.02950534 -209.125 73.625 C-199.41097496 95.23292489 -199.41097496 95.23292489 -201 100 C-201.99 100.495 -201.99 100.495 -203 101 C-203 101.66 -203 102.32 -203 103 C-204.423125 103.4640625 -204.423125 103.4640625 -205.875 103.9375 C-208.86080408 104.87394742 -208.86080408 104.87394742 -211 106 C-211 106.66 -211 107.32 -211 108 C-211.721875 108.226875 -212.44375 108.45375 -213.1875 108.6875 C-216.6270755 110.29263523 -218.40226346 112.22102603 -221 115 C-222.36922167 116.40150195 -223.74460053 117.7970062 -225.125 119.1875 C-225.78757813 119.86167969 -226.45015625 120.53585938 -227.1328125 121.23046875 C-229 123 -229 123 -232 125 C-233.01622658 126.99180409 -234.01712992 128.99152635 -235 131 C-235.99 131.495 -235.99 131.495 -237 132 C-237 132.99 -237 133.98 -237 135 C-237.66 135 -238.32 135 -239 135 C-239.33 136.65 -239.66 138.3 -240 140 C-240.99 140.33 -241.98 140.66 -243 141 C-244.70533217 144.32091002 -245 146.18492784 -245 150 C-245.66 150 -246.32 150 -247 150 C-254.31125606 166.64522273 -260.31822952 183.83827608 -261.375 202.125 C-261.77825922 207.77062911 -263.35327994 212.04613906 -266 217 C-266.47953125 218.08087891 -266.47953125 218.08087891 -266.96875 219.18359375 C-268.42166058 221.74269761 -270.32198871 221.96999566 -273 223 C-273.33 223.99 -273.66 224.98 -274 226 C-275.875 226.5625 -275.875 226.5625 -278 227 C-279.485 227.99 -279.485 227.99 -281 229 C-279.83487288 232.01861324 -279.83487288 232.01861324 -277.29296875 233.8359375 C-276.25076172 234.10277344 -276.25076172 234.10277344 -275.1875 234.375 C-268.8241291 236.23618201 -262.96950615 239.14903029 -257 242 C-257.66386719 242.17015625 -258.32773437 242.3403125 -259.01171875 242.515625 C-264.10851918 243.9144549 -268.21771363 245.09163742 -272 249 C-272 249.66 -272 250.32 -272 251 C-272.66 251 -273.32 251 -274 251 C-274 251.66 -274 252.32 -274 253 C-273.01 253 -272.02 253 -271 253 C-271 253.99 -271 254.98 -271 256 C-269.576875 256.37125 -269.576875 256.37125 -268.125 256.75 C-265 258 -265 258 -263.8125 259.9375 C-263.544375 260.618125 -263.27625 261.29875 -263 262 C-261.9017688 263.79187235 -261.9017688 263.79187235 -260 265 C-257.09718884 264.91151112 -257.09718884 264.91151112 -253.75 264.1875 C-243.23418455 262.39843001 -232.62958007 262.81990807 -222 263 C-222 263.66 -222 264.32 -222 265 C-222.56807373 264.98952637 -223.13614746 264.97905273 -223.72143555 264.96826172 C-234.6859444 264.79314877 -245.21779725 264.75954229 -256 267 C-255.60957766 271.95745581 -253.09193372 274.5454374 -249.6875 277.875 C-249.20087891 278.38546875 -248.71425781 278.8959375 -248.21289062 279.421875 C-246.61982447 281.06894133 -246.61982447 281.06894133 -244 283 C-241.9158781 283.08100381 -241.9158781 283.08100381 -240 282 C-238.73736328 281.5359375 -238.73736328 281.5359375 -237.44921875 281.0625 C-235.61487629 280.35678409 -233.78153167 279.64846878 -231.94921875 278.9375 C-228.64551833 277.88731709 -225.43699034 277.40987711 -222 277 C-223.13179687 277.42152344 -224.26359375 277.84304688 -225.4296875 278.27734375 C-226.91147994 278.83067131 -228.39324959 279.38405989 -229.875 279.9375 C-230.62136719 280.21529297 -231.36773437 280.49308594 -232.13671875 280.77929688 C-236.12724515 282.25099194 -236.12724515 282.25099194 -240 284 C-240 284.99 -240 285.98 -240 287 C-237.98119383 288.78795914 -237.98119383 288.78795914 -235.375 290.4375 C-234.45074219 291.05367188 -233.52648437 291.66984375 -232.57421875 292.3046875 C-231.72472656 292.86414063 -230.87523437 293.42359375 -230 294 C-229.071875 294.680625 -228.14375 295.36125 -227.1875 296.0625 C-222.02901361 299.19805055 -216.53452878 301.60410009 -211 304 C-210.25371338 304.32822754 -209.50742676 304.65645508 -208.73852539 304.99462891 C-201.6845795 307.97858822 -194.63453381 309.51447472 -187.12304688 310.890625 C-181.14204863 312.11620499 -176.97535037 314.00133435 -172.03051758 317.57373047 C-162.88147845 324.00016868 -151.82739661 325.11081521 -141 324 C-137.48754806 323.34547482 -134.31378988 322.32446061 -131 321 C-130.04609375 320.62488281 -129.0921875 320.24976563 -128.109375 319.86328125 C-124.16257695 318.25926204 -120.25435382 316.61290126 -116.42578125 314.7421875 C-110.75028026 311.97831412 -105.14363952 310.11145167 -99.0625 308.5 C-87.87768453 305.52313605 -77.79989801 301.02558791 -67.51708984 295.76635742 C-64.83452796 294.39553137 -62.19651388 293.07398514 -59.375 292.01171875 C-56.37268257 290.73277103 -54.03702957 288.9668207 -51.4375 287 C-48.37662457 284.69054614 -45.5010033 282.58162973 -42 281 C-42 279.68 -42 278.36 -42 277 C-50.21688079 273.51604255 -58.0860322 270.21649443 -67 269 C-56.03633461 269.74329935 -43.23702604 272.84198264 -34 279 C-29.94401743 278.77514809 -27.33643482 276.12004902 -24.3125 273.625 C-22.85263672 272.43777344 -22.85263672 272.43777344 -21.36328125 271.2265625 C-18.78752035 269.15197109 -18.78752035 269.15197109 -18 266 C-17.34 266 -16.68 266 -16 266 C-16 265.34 -16 264.68 -16 264 C-15.4225 263.7525 -14.845 263.505 -14.25 263.25 C-11.62776908 261.79320504 -9.90746919 260.31621258 -8 258 C-8 256.68 -8 255.36 -8 254 C-9.49720822 253.51218011 -10.99797364 253.03527637 -12.5 252.5625 C-13.3353125 252.29566406 -14.170625 252.02882813 -15.03125 251.75390625 C-30.31981359 247.87141576 -56.70763685 246.85381842 -71 254 C-71 253.34 -71 252.68 -71 252 C-69.97003906 251.86851562 -68.94007813 251.73703125 -67.87890625 251.6015625 C-64.13481201 251.0941864 -64.13481201 251.0941864 -61.08984375 250.2109375 C-42.8092363 245.3632919 -19.44235876 247.4139858 -1 251 C-0.67 250.01 -0.34 249.02 0 248 C0.78375 247.9175 1.5675 247.835 2.375 247.75 C5.14044802 247.28474077 5.14044802 247.28474077 6.1875 245 C6.455625 244.34 6.72375 243.68 7 243 C7.66 242.67 8.32 242.34 9 242 C9 241.01 9 240.02 9 239 C7.68 238.67 6.36 238.34 5 238 C5 237.34 5 236.68 5 236 C2.75354465 234.18290825 2.75354465 234.18290825 0 232.375 C-0.928125 231.74335938 -1.85625 231.11171875 -2.8125 230.4609375 C-3.534375 229.97882813 -4.25625 229.49671875 -5 229 C-4.08476562 228.72285156 -3.16953125 228.44570313 -2.2265625 228.16015625 C-1.03804688 227.79792969 0.15046875 227.43570313 1.375 227.0625 C3.15003906 226.52302734 3.15003906 226.52302734 4.9609375 225.97265625 C7.87926818 225.12423726 7.87926818 225.12423726 10 224 C10 222.68 10 221.36 10 220 C11.65 219.34 13.3 218.68 15 218 C15 217.01 15 216.02 15 215 C13.23241137 213.58302033 13.23241137 213.58302033 10.9375 212.3125 C2.78097125 207.11383332 -4.42962945 198.87279458 -6.6328125 189.23046875 C-6.75398438 188.49441406 -6.87515625 187.75835937 -7 187 C-7.66 187 -8.32 187 -9 187 C-9.3403125 185.14375 -9.3403125 185.14375 -9.6875 183.25 C-11.04268398 177.1753641 -13.5144679 171.68412669 -16 166 C-16.52054041 164.75486997 -17.03869984 163.50874234 -17.5546875 162.26171875 C-18.07801458 161.00776641 -18.6014501 159.75385932 -19.125 158.5 C-19.60195313 157.3553125 -20.07890625 156.210625 -20.5703125 155.03125 C-21.83822852 152.07278051 -21.83822852 152.07278051 -23.4921875 150.03125 C-25.1549518 147.79125664 -26.15801361 145.47223631 -27.21386719 142.90039062 C-32.99453642 128.92625109 -40.51518775 116.5878498 -52.5 107 C-55.20281086 104.83775131 -57.58895882 102.47992807 -60 100 C-58.33538047 94.32516068 -56.40256471 89.89118677 -53 85 C-52.2575 83.2675 -52.2575 83.2675 -51.5 81.5 C-49.98899917 77.9743314 -48.19984856 75.13311765 -46 72 C-43.08353265 68.31730203 -43.08353265 68.31730203 -42 64 C-41.01 63.67 -40.02 63.34 -39 63 C-38.09699831 61.43711246 -37.20260314 59.86882702 -36.34375 58.28125 C-30.89331215 49.0281811 -23.76359836 41.32598425 -16 34 C-16.33 34.598125 -16.66 35.19625 -17 35.8125 C-18.20787988 38.05386471 -18.20787988 38.05386471 -18 41 C-19.485 41.495 -19.485 41.495 -21 42 C-22.02611949 43.65071396 -23.02308143 45.31970006 -24 47 C-24.60457031 47.58910156 -25.20914063 48.17820313 -25.83203125 48.78515625 C-28.36045077 51.3682443 -30.25271746 54.1142815 -32.25 57.125 C-32.95640625 58.17945313 -33.6628125 59.23390625 -34.390625 60.3203125 C-36.17162109 62.76478578 -36.17162109 62.76478578 -36 65 C-36.66 65 -37.32 65 -38 65 C-39.17176518 67.12232979 -40.33754785 69.24757791 -41.5 71.375 C-41.83386719 71.97828125 -42.16773438 72.5815625 -42.51171875 73.203125 C-44.38773938 76.41414777 -44.38773938 76.41414777 -45 80 C-45.66 80 -46.32 80 -47 80 C-47.84026396 81.76755526 -48.67198722 83.53917263 -49.5 85.3125 C-49.9640625 86.29863281 -50.428125 87.28476563 -50.90625 88.30078125 C-52.18777472 90.97800126 -52.18777472 90.97800126 -52 94 C-46.48502778 93.37329861 -41.2372755 92.11357805 -35.8671875 90.71875 C-34.92101562 90.4815625 -33.97484375 90.244375 -33 90 C-32.23558594 89.80535156 -31.47117187 89.61070312 -30.68359375 89.41015625 C-26.84541897 88.82353565 -23.06336716 88.89526507 -19.1875 88.9375 C-18.00510742 88.94426758 -18.00510742 88.94426758 -16.79882812 88.95117188 C-14.86585239 88.96288688 -12.93291607 88.98082002 -11 89 C-13.30636184 93.31862384 -15.18667873 96.60327229 -19.0625 99.6875 C-21.22432204 101.42608624 -22.92272989 102.89368097 -24.55859375 105.14453125 C-26 107 -26 107 -29 108 C-29.73323796 110.01508358 -29.73323796 110.01508358 -30 112 C-24.61603921 116.90997569 -24.61603921 116.90997569 -18 119 C-17.34 120.32 -16.68 121.64 -16 123 C-15.01 123 -14.02 123 -13 123 C-12.61521484 123.89525391 -12.61521484 123.89525391 -12.22265625 124.80859375 C-10.88899816 127.19895218 -9.57948606 128.38557981 -7.4375 130.0625 C-4.80562347 132.12532214 -4.09567461 132.71297618 -3 136 C-9.27 136.33 -15.54 136.66 -22 137 C-21.24872886 140.75635569 -20.75994274 142.83210307 -19 146 C-18.34 146 -17.68 146 -17 146 C-16.74476563 146.81791016 -16.74476563 146.81791016 -16.484375 147.65234375 C-14.21421289 154.71641201 -11.3460832 161.382191 -8 168 C-7.34 168 -6.68 168 -6 168 C-2.73828922 159.811024 -0.47606134 151.48595697 1.53857422 142.92529297 C1.95300318 141.1960936 2.39838629 139.47438244 2.84765625 137.75390625 C6.83756692 122.01481138 7.3544549 105.84585456 7.25 89.6875 C7.24723053 88.83937744 7.24446106 87.99125488 7.24160767 87.11743164 C7.19149377 73.98111506 6.66317022 61.04065302 5 48 C4.76776782 46.04432556 4.53601649 44.08859398 4.3046875 42.1328125 C3.23302751 33.31074159 2.02632611 24.50581085 0.5 15.75 C0.2834375 14.50734375 0.066875 13.2646875 -0.15625 11.984375 C-0.99263064 9.02606572 -1.5111227 7.75237279 -4 6 C-7.32791489 6 -9.86463775 8.17041733 -12.625 9.875 Z " fill="#B1B1B1" transform="translate(333,52)"/>
<path d="M0 0 C0.99 0.495 0.99 0.495 2 1 C-8.55388625 9.9766759 -19.17896358 18.84319712 -30.1015625 27.37109375 C-32.09638567 28.8697808 -32.09638567 28.8697808 -33 31 C-32.46632812 30.81824219 -31.93265625 30.63648438 -31.3828125 30.44921875 C-26.53216565 28.81275485 -21.66451158 27.27714921 -16.75 25.84375 C-15.20089022 25.36845495 -13.65581654 24.87721533 -12.12963867 24.33276367 C-5.63495132 22.04047768 0.93575736 20.63410072 7.6875 19.3125 C9.33975586 18.97508789 9.33975586 18.97508789 11.02539062 18.63085938 C12.09337891 18.41880859 13.16136719 18.20675781 14.26171875 17.98828125 C15.22037842 17.79790283 16.17903809 17.60752441 17.16674805 17.41137695 C20.14894897 16.9783732 22.99075412 16.92962943 26 17 C27.1579435 27.55015188 24.15209458 36.6625312 20.83349609 46.52099609 C20.0585252 48.82593297 19.31899486 51.13974229 18.58203125 53.45703125 C15.63127699 62.35294732 11.55475556 69.1944538 5 76 C4.20851563 76.86496094 3.41703125 77.72992188 2.6015625 78.62109375 C-0.18555748 81.16967643 -2.57742435 82.45629664 -6.0625 83.875 C-7.08472656 84.30554688 -8.10695313 84.73609375 -9.16015625 85.1796875 C-12.02639812 86.00762532 -13.26675122 86.06183766 -16 85 C-15.41992188 84.62488281 -14.83984375 84.24976563 -14.2421875 83.86328125 C-1.45844802 75.48845522 4.61739242 67.24468648 10 53 C10.2990625 52.26136719 10.598125 51.52273438 10.90625 50.76171875 C13.53882201 43.77224006 14.17414704 36.37438114 15 29 C10.05 30.485 10.05 30.485 5 32 C4.92523438 32.969375 4.85046875 33.93875 4.7734375 34.9375 C3.28709592 51.10604585 -1.50488092 67.28575207 -14.375 78.1875 C-18.62770412 80.86982485 -23.1536649 80.73604748 -28 80 C-34.46370477 77.50265952 -38.6423842 71.32864363 -41.375 65.1875 C-43.47803592 60.22057371 -43.15086686 55.29516906 -43 50 C-43.57443848 50.2673999 -44.14887695 50.5347998 -44.74072266 50.81030273 C-47.36539178 52.02691593 -49.99508369 53.2322741 -52.625 54.4375 C-53.52863281 54.85837891 -54.43226563 55.27925781 -55.36328125 55.71289062 C-59.90784822 57.78614198 -63.96695493 59.55195445 -69 60 C-69.7734375 60.07863281 -70.546875 60.15726562 -71.34375 60.23828125 C-75.33247881 60.37557445 -77.81812361 60.07657953 -81.5625 58.5 C-84 56 -84 56 -84.625 52.3125 C-83.74275821 41.91739019 -76.38966154 31.95226725 -69 25 C-68.34 25.33 -67.68 25.66 -67 26 C-67.81404297 27.61068359 -67.81404297 27.61068359 -68.64453125 29.25390625 C-69.36729615 30.69004949 -70.08994628 32.1262505 -70.8125 33.5625 C-71.16892578 34.26697266 -71.52535156 34.97144531 -71.89257812 35.69726562 C-76.35862208 43.96286512 -76.35862208 43.96286512 -78 53 C-68.27128536 52.02712854 -61.51888921 46.29438687 -54.1484375 40.4375 C-51 38 -51 38 -47.8515625 36 C-44.95007681 34.16545282 -44.95007681 34.16545282 -43.12109375 31.640625 C-40.22215204 28.03162942 -36.75560281 25.50978927 -33.0625 22.75 C-32.31049316 22.18152344 -31.55848633 21.61304688 -30.78369141 21.02734375 C-25.19973891 16.83198067 -19.52002034 12.79967052 -13.74609375 8.87109375 C-11.44655234 7.30426539 -9.18528169 5.7020025 -6.9375 4.0625 C-2.43705463 0.90261283 -2.43705463 0.90261283 0 0 Z " fill="#313131" transform="translate(262,212)"/>
<path d="M0 0 C7.1403289 3.07935088 9.9256885 8.84675511 12.8125 15.75 C16.90959711 26.96310789 16.49746546 35.67487376 13 47 C12.34 47 11.68 47 11 47 C10.74476563 47.59683594 10.48953125 48.19367188 10.2265625 48.80859375 C7.26664327 54.09685709 0.91324185 57.66591428 -4.73828125 59.53125 C-12.87745624 61.21812565 -20.41293103 60.21875653 -28 57 C-28 56.34 -28 55.68 -28 55 C-28.88945312 54.57267578 -28.88945312 54.57267578 -29.796875 54.13671875 C-38.00533204 49.90150422 -41.16916646 43.56643023 -45.10546875 35.65625 C-48.61270218 28.69881869 -53.46437493 22.68461804 -58.171875 16.51171875 C-60 14 -60 14 -60 13 C-59.13117188 12.95101563 -58.26234375 12.90203125 -57.3671875 12.8515625 C-56.21476563 12.77679688 -55.06234375 12.70203125 -53.875 12.625 C-52.16957031 12.52058594 -52.16957031 12.52058594 -50.4296875 12.4140625 C-47.04606384 12.00556124 -44.18387559 11.19032431 -41 10 C-41 9.34 -41 8.68 -41 8 C-38 6 -38 6 -35.4375 6.3125 C-33 7 -33 7 -31 8 C-24.38361109 8.72589878 -20.32131596 8.25705276 -15 4 C-10.28621379 0.66997442 -5.89483905 -1.40890035 0 0 Z " fill="#787878" transform="translate(197,308)"/>
<path d="M0 0 C4.83757135 4.10047661 9.560395 8.2888368 14.1875 12.625 C14.86240479 13.25599609 15.53730957 13.88699219 16.23266602 14.53710938 C22.95575649 20.87152475 29.45943836 27.42173035 35.90893555 34.03369141 C44.40517967 43.04513868 44.40517967 43.04513868 55 49 C52.24809142 39.12550449 48.59872163 29.58969974 45 20 C52.60947831 23.53813397 56.16881784 32.44029895 59 40 C60.14510265 44.00785927 60.23547641 47.83991677 60 52 C58 54 58 54 55.375 54.125 C54.59125 54.08375 53.8075 54.0425 53 54 C53.0825 55.134375 53.165 56.26875 53.25 57.4375 C53.25 63.62212664 50.70224239 68.59338144 47.1875 73.5625 C43.8598171 75.74926305 41.90540794 75.66193355 38 75 C33.17327872 72.10594946 29.81737239 68.35115205 28 63 C27.4885725 59.33898931 27.19044706 55.6907326 27 52 C29.64 52.33 32.28 52.66 35 53 C34.01 53.495 34.01 53.495 33 54 C34.24329548 61.53636872 34.24329548 61.53636872 38 68 C41.0957107 68.89207179 41.0957107 68.89207179 44 69 C46.36980013 66.04622502 46.36980013 66.04622502 46 62 C45.01 61.505 45.01 61.505 44 61 C43.67 62.32 43.34 63.64 43 65 C41.109375 64.7265625 41.109375 64.7265625 39 64 C36.00442886 59.41722326 35.78215378 54.33723228 36 49 C34.83016556 47.60318432 34.83016556 47.60318432 31.5625 47.875 C28.15894416 47.7473719 28.15894416 47.7473719 26 49 C26.07009277 48.13749634 26.07009277 48.13749634 26.14160156 47.25756836 C26.14048166 44.55664121 25.91241859 42.55259962 25 40 C21.95274424 37.16188444 18.45257363 35.42362101 14.75 33.5625 C13.79480469 33.04751953 12.83960937 32.53253906 11.85546875 32.00195312 C7.64438656 29.75584739 3.45456703 27.71999655 -1 26 C-3.23439556 28.23439556 -2.31174328 33.70880484 -2.31469727 36.79736328 C-2.06980256 50.84475519 1.20255293 63.68976144 11.01953125 74.15234375 C17.70997461 80.40784433 24.11934971 81.33307369 33 82 C30.30110992 84.69889008 28.77157544 84.36189059 25 84.4375 C17.5186242 84.30523258 11.64329549 82.52526216 6.19140625 77.25 C5.2083672 76.1125184 4.25582372 74.94715237 3.3515625 73.74609375 C2.00454258 71.90174378 2.00454258 71.90174378 0.05859375 70.234375 C-13.20125415 55.84228202 -12.47686467 32.06787244 -12 14 C-2.22086681 15.05621923 6.06715907 18.11933959 15 22 C15 21.01 15 20.02 15 19 C14.401875 18.731875 13.80375 18.46375 13.1875 18.1875 C10.98180967 16.99012525 9.56416813 15.95521016 8 14 C8 13.01 8 12.02 8 11 C7.01 10.67 6.02 10.34 5 10 C3.61328125 8.22265625 3.61328125 8.22265625 2.3125 6.0625 C1.87550781 5.35222656 1.43851563 4.64195312 0.98828125 3.91015625 C0 2 0 2 0 0 Z " fill="#333333" transform="translate(92,215)"/>
<path d="M0 0 C9.05280493 3.18409001 15.6111262 7.97033415 20.859375 16.01171875 C23.17068231 22.10419701 22.62056996 31.54962667 20.64453125 37.74609375 C16.14888953 46.84152333 7.45158105 50.8435603 -1.26171875 55.0625 C-6.96395403 57.9275119 -6.96395403 57.9275119 -10.40234375 63.08984375 C-10.69625 64.13140625 -10.99015625 65.17296875 -11.29296875 66.24609375 C-16.53176953 65.69464104 -21.26647572 64.81687282 -26.29296875 63.24609375 C-25.74185566 56.35718016 -23.72804842 52.46044982 -18.62109375 47.81640625 C-14.69449192 44.60683606 -10.3020615 42.50753307 -5.77148438 40.28515625 C-1.03109554 37.87397169 3.2450306 35.17009505 5.70703125 30.24609375 C6.24020489 25.79715303 6.31470353 22.32120624 4.08203125 18.37109375 C-0.90428577 13.90965221 -5.29445899 12.62565671 -11.88671875 12.82421875 C-15.91739435 13.53089564 -17.5576405 15.23723268 -20.29296875 18.24609375 C-21.66551463 20.39589872 -21.66551463 20.39589872 -22.29296875 22.24609375 C-27.7477606 21.67788627 -32.20356131 20.2997143 -37.29296875 18.24609375 C-35.82571527 11.72496718 -31.77719489 6.68785062 -26.34765625 2.8828125 C-24.7004497 1.93515183 -22.99933713 1.08254884 -21.29296875 0.24609375 C-15.64566927 -2.57755599 -6.02234511 -1.37878126 0 0 Z " fill="#838383" transform="translate(259.29296875,18.75390625)"/>
<path d="M0 0 C6.6731997 5.79367756 9.80310149 12.22388961 10.4296875 20.99609375 C10.37401595 27.4062756 8.11725908 32.02897727 5.37304688 37.66162109 C2.54570286 43.6966889 2.07430013 48.97594245 2.8671875 55.62109375 C1.07765565 56.45900164 -0.71450945 57.29128771 -2.5078125 58.12109375 C-3.50554687 58.58515625 -4.50328125 59.04921875 -5.53125 59.52734375 C-8.1328125 60.62109375 -8.1328125 60.62109375 -10.1328125 60.62109375 C-13.12264661 54.89057837 -14.31735024 50.05844366 -13.1328125 43.62109375 C-11.8651478 39.94749014 -10.33778651 36.38976814 -8.71142578 32.86181641 C-6.51947965 28.03277313 -5.3810393 23.94668691 -5.1328125 18.62109375 C-6.7130447 15.46062935 -8.10993907 13.42478002 -10.8828125 11.24609375 C-15.72709169 9.90046064 -19.7433012 10.1133877 -24.3828125 11.80859375 C-27.610536 13.93595696 -29.27688743 15.19477054 -31.1328125 18.62109375 C-31.45566083 22.31302059 -31.36579506 25.92573145 -31.1328125 29.62109375 C-32.90036776 30.46135771 -34.67198513 31.29308097 -36.4453125 32.12109375 C-37.43144531 32.58515625 -38.41757813 33.04921875 -39.43359375 33.52734375 C-42.1328125 34.62109375 -42.1328125 34.62109375 -45.1328125 34.62109375 C-47.96172149 28.96327577 -47.06264128 19.47673391 -45.14453125 13.5859375 C-41.59636231 7.11927467 -36.47515875 3.20546526 -30.1328125 -0.37890625 C-29.19501953 -0.9203125 -29.19501953 -0.9203125 -28.23828125 -1.47265625 C-19.75800367 -5.46337511 -7.81071862 -5.20223334 0 0 Z " fill="#838383" transform="translate(193.1328125,18.37890625)"/>
<path d="M0 0 C7.1403289 3.07935088 9.9256885 8.84675511 12.8125 15.75 C16.90959711 26.96310789 16.49746546 35.67487376 13 47 C12.34 47 11.68 47 11 47 C10.74476563 47.59683594 10.48953125 48.19367188 10.2265625 48.80859375 C7.26664327 54.09685709 0.91324185 57.66591428 -4.73828125 59.53125 C-12.87745624 61.21812565 -20.41293103 60.21875653 -28 57 C-28 56.34 -28 55.68 -28 55 C-28.88945312 54.57267578 -28.88945312 54.57267578 -29.796875 54.13671875 C-38.00533204 49.90150422 -41.16916646 43.56643023 -45.10546875 35.65625 C-48.61270218 28.69881869 -53.46437493 22.68461804 -58.171875 16.51171875 C-60 14 -60 14 -60 13 C-59.13117188 12.95101563 -58.26234375 12.90203125 -57.3671875 12.8515625 C-56.21476563 12.77679688 -55.06234375 12.70203125 -53.875 12.625 C-52.16957031 12.52058594 -52.16957031 12.52058594 -50.4296875 12.4140625 C-47.04606384 12.00556124 -44.18387559 11.19032431 -41 10 C-41 9.34 -41 8.68 -41 8 C-38 6 -38 6 -35.4375 6.3125 C-33 7 -33 7 -31 8 C-24.38361109 8.72589878 -20.32131596 8.25705276 -15 4 C-10.28621379 0.66997442 -5.89483905 -1.40890035 0 0 Z M-31.13671875 19.1328125 C-34.66033159 22.66381237 -38.00699196 26.39919161 -40 31 C-39.83413527 39.10894217 -35.27473334 44.23051104 -30 50 C-23.88774241 55.44546585 -18.1702536 56.86758342 -10.0546875 56.45703125 C-3.13065915 55.42108327 1.4590937 52.29772401 6 47 C11.04324337 40.13558541 11.80274591 34.40713618 11 26 C9.62751045 20.67990436 8.24111729 15.69426836 4 12 C3.525625 12.969375 3.05125 13.93875 2.5625 14.9375 C1 18 1 18 0 19 C-2.6875 19.5 -2.6875 19.5 -6 19 C-7.80256694 17.30346641 -9.23410433 15.52153606 -10.703125 13.53125 C-11.13109375 13.0259375 -11.5590625 12.520625 -12 12 C-18.92853443 12 -25.86490397 14.74509088 -31.13671875 19.1328125 Z " fill="#343434" transform="translate(197,308)"/>
<path d="M0 0 C1.50390625 1.13671875 1.50390625 1.13671875 4.06640625 3.82421875 C4.21823813 7.46818382 3.38806521 9.29669806 1.50390625 12.38671875 C-4.12171417 18.01233917 -10.02940032 20.94836847 -17.99609375 21.26171875 C-24.93537075 21.22295184 -29.64321586 19.27712369 -34.93359375 14.82421875 C-37.90462119 11.36021109 -37.90462119 11.36021109 -38.05859375 8.51171875 C-35.8561303 3.25027828 -31.6410926 -0.07302158 -26.93359375 -3.11328125 C-17.81273011 -6.45829047 -8.03152457 -4.88381595 0 0 Z " fill="#CBCBCB" transform="translate(201.93359375,343.17578125)"/>
<path d="M0 0 C5.73390352 1.88892808 7.28673385 4.85512162 10 10 C15.93342447 22.0866054 15.9076364 32.34670117 12 45 C11.34 45 10.68 45 10 45 C9.74476563 45.59683594 9.48953125 46.19367188 9.2265625 46.80859375 C6.26664327 52.09685709 -0.08675815 55.66591428 -5.73828125 57.53125 C-13.87745624 59.21812565 -21.41293103 58.21875653 -29 55 C-29 54.34 -29 53.68 -29 53 C-29.5775 52.7525 -30.155 52.505 -30.75 52.25 C-33.3002997 50.83316683 -35.01785701 49.12372463 -37 47 C-36.67 46.01 -36.34 45.02 -36 44 C-34.0625 44.3125 -34.0625 44.3125 -32 45 C-31.67 45.99 -31.34 46.98 -31 48 C-29.25132517 49.08431094 -29.25132517 49.08431094 -27 50 C-26.195625 50.53625 -25.39125 51.0725 -24.5625 51.625 C-18.5357348 53.9511199 -11.77932097 54.12292923 -5.5546875 52.2734375 C0.54761566 49.41950865 4.92499818 44.99625355 8 39 C10.9926701 29.16395142 8.46633449 19.93266898 4 11 C3.01 12.32 2.02 13.64 1 15 C1 13.68 1 12.36 1 11 C0.84998555 9.08195815 0.68240316 7.16523314 0.5 5.25 C0.4071875 4.26515625 0.314375 3.2803125 0.21875 2.265625 C0.11046875 1.14414062 0.11046875 1.14414062 0 0 Z " fill="#393939" transform="translate(198,310)"/>
<path d="M0 0 C0.70125 0.00169189 1.4025 0.00338379 2.125 0.00512695 C6.7135424 0.18732555 9.99238408 1.32316949 13.9375 3.625 C12.43833937 7.44104524 10.24043358 9.26576173 6.9375 11.625 C6.215625 11.934375 5.49375 12.24375 4.75 12.5625 C2.19483619 14.06035465 1.80559653 15.87602766 0.9375 18.625 C-2.0625 17.625 -2.0625 17.625 -3.46875 16.09765625 C-5.52779974 14.19505392 -6.79844007 14.20530976 -9.5625 14.0625 C-13.06683726 13.86976145 -13.99199437 13.67200375 -17.0625 11.625 C-17.0625 10.965 -17.0625 10.305 -17.0625 9.625 C-18.32707031 10.18380859 -18.32707031 10.18380859 -19.6171875 10.75390625 C-20.71289062 11.22699219 -21.80859375 11.70007813 -22.9375 12.1875 C-24.02804688 12.66316406 -25.11859375 13.13882812 -26.2421875 13.62890625 C-27.17289063 13.95761719 -28.10359375 14.28632813 -29.0625 14.625 C-29.7225 14.295 -30.3825 13.965 -31.0625 13.625 C-27.3125 10.625 -27.3125 10.625 -25.0625 10.625 C-24.7325 9.635 -24.4025 8.645 -24.0625 7.625 C-16.54410576 2.69369366 -9.02217726 -0.02873936 0 0 Z " fill="#D7D7D7" transform="translate(158.0625,290.375)"/>
<path d="M0 0 C3.62416894 1.64734952 6.12851416 3.45402683 8 7 C8.41259969 10.78216379 8.32517815 13.24695586 6.8125 16.75 C4.65130616 19.43286132 3.21542571 20.71382971 0 22 C-4.35633194 22.22090933 -7.28795365 21.46964759 -10.9375 19.0625 C-13.78162636 16.21837364 -13.9637196 15.36280396 -14.375 11.25 C-14.35058775 7.89941932 -13.75601354 6.15105468 -11.625 3.5625 C-7.6742692 -0.29416578 -5.48740163 -0.37202723 0 0 Z " fill="#838383" transform="translate(237,93)"/>
<path d="M0 0 C9.02085598 2.97001155 21.16419416 8.16419416 28 15 C28.23287008 16.68183948 28.41264166 18.3712416 28.5625 20.0625 C28.68818359 21.44115234 28.68818359 21.44115234 28.81640625 22.84765625 C28.87699219 23.55792969 28.93757813 24.26820313 29 25 C22.5410026 23.71594357 16.6617654 21.90056721 10.5625 19.4375 C9.76134766 19.12103516 8.96019531 18.80457031 8.13476562 18.47851562 C2.42876276 16.21438138 2.42876276 16.21438138 0 15 C-0.33 16.32 -0.66 17.64 -1 19 C-1.02690104 16.20826945 -1.04679053 13.41679652 -1.0625 10.625 C-1.07087891 9.8309375 -1.07925781 9.036875 -1.08789062 8.21875 C-1.11328125 2.2265625 -1.11328125 2.2265625 0 0 Z " fill="#C6C6C6" transform="translate(90,240)"/>
<path d="M0 0 C2.8100346 1.79363911 4.50940468 3.01880935 6 6 C6.64330802 10.6777683 6.66351687 13.97261904 4.0625 18 C0.08488645 20.59762517 -3.25808468 21.44751288 -8 21 C-11.5084862 18.98448665 -13.74503552 16.87898112 -15 13 C-15.45972376 9.97895814 -15.60025379 7.96174492 -13.94921875 5.31640625 C-9.82336514 0.24124119 -6.46508787 -0.92889194 0 0 Z " fill="#848484" transform="translate(202,85)"/>
<path d="M0 0 C-0.020625 1.0725 -0.04125 2.145 -0.0625 3.25 C-0.0142016 6.14790424 0.13155885 8.28612141 1 11 C3.28341743 11.67154684 3.28341743 11.67154684 6 11 C8.0261645 8.53061201 9.47568325 5.79725495 11 3 C11.66 2.01 12.32 1.02 13 0 C14.9375 0.5625 14.9375 0.5625 17 2 C18.320201 6.29065326 18.39814723 8.23319793 16.3125 12.25 C13.07715836 16.0974333 11.62983753 17.76293272 6.5625 18.5 C3 18 3 18 0.125 15.9375 C-2.34064564 12.52910749 -2.75554295 10.15576993 -3 6 C-5.31 5.67 -7.62 5.34 -10 5 C-9.625 2.5625 -9.625 2.5625 -9 0 C-5.93109813 -1.53445094 -3.29905734 -0.54984289 0 0 Z " fill="#BABABA" transform="translate(231,268)"/>
<path d="M0 0 C0.22151549 1.79008467 0.42682213 3.58218162 0.625 5.375 C0.79902344 6.87160156 0.79902344 6.87160156 0.9765625 8.3984375 C0.98429687 9.25695312 0.99203125 10.11546875 1 11 C-1.69565485 13.69565485 -4.21680153 14.0982707 -7.875 15.125 C-9.10992187 15.47820312 -10.34484375 15.83140625 -11.6171875 16.1953125 C-15 17 -15 17 -19 17 C-19 16.34 -19 15.68 -19 15 C-19.66 15 -20.32 15 -21 15 C-21 13.02 -21 11.04 -21 9 C-3.33196721 0 -3.33196721 0 0 0 Z " fill="#C8C8C8" transform="translate(219,262)"/>
<path d="M0 0 C1.9375 0.3125 1.9375 0.3125 4 1 C4.33 1.99 4.66 2.98 5 4 C6.74867483 5.08431094 6.74867483 5.08431094 9 6 C9.804375 6.53625 10.60875 7.0725 11.4375 7.625 C17.41324348 9.93142731 24.32129832 10.25169881 30.4453125 8.16796875 C32.36266998 7.19470934 34.17189018 6.1296339 36 5 C37.65697379 4.30959426 39.31923769 3.63028587 41 3 C40.0409375 4.1446875 40.0409375 4.1446875 39.0625 5.3125 C36.85767219 7.88246713 36.85767219 7.88246713 36 11 C28.79109376 14.67246167 21.10202217 15.25211828 13.23046875 13.3203125 C11.11297908 12.62004033 9.05253317 11.87077165 7 11 C7 10.34 7 9.68 7 9 C6.4225 8.7525 5.845 8.505 5.25 8.25 C2.6997003 6.83316683 0.98214299 5.12372463 -1 3 C-0.67 2.01 -0.34 1.02 0 0 Z " fill="#333333" transform="translate(162,354)"/>
<path d="M0 0 C2.625 0.375 2.625 0.375 5 1 C5.4277608 10.53748149 4.32520414 18.76838596 2 28 C1.7525 27.443125 1.505 26.88625 1.25 26.3125 C0.06176826 23.85963515 0.06176826 23.85963515 -2.1640625 21.79296875 C-4.7948084 17.79087658 -4.0977742 14.8939558 -3.375 10.3125 C-3.27832031 9.54099609 -3.18164062 8.76949219 -3.08203125 7.97460938 C-2.29882219 2.29882219 -2.29882219 2.29882219 0 0 Z " fill="#6C6C6C" transform="translate(248,248)"/>
<path d="M0 0 C2.64 0.33 5.28 0.66 8 1 C7.01 1.495 7.01 1.495 6 2 C7.24329548 9.53636872 7.24329548 9.53636872 11 16 C13.95361173 17.07575878 13.95361173 17.07575878 17 17 C17.99 16.34 18.98 15.68 20 15 C19.67 15.5775 19.34 16.155 19 16.75 C17.72924102 19.19883862 17.72924102 19.19883862 18 23 C14.66054737 23.40891257 12.05624792 23.61955072 9.08203125 21.875 C4.39775687 18.03968793 1.46568525 14.33356868 0.60546875 8.17578125 C0.34374929 5.45040925 0.14107945 2.73402246 0 0 Z " fill="#2D2D2D" transform="translate(119,267)"/>
<path d="M0 0 C-1.3689841 3.16577573 -1.95673931 3.9720608 -5 5.9375 C-8.2084515 8.14331041 -8.98010103 9.32836369 -10 13 C-13.13636891 11.9545437 -13.76188957 11.23811043 -16 9 C-17.64605826 7.96642853 -19.30963442 6.95939668 -21 6 C-20.67 4.68 -20.34 3.36 -20 2 C-13.38190423 -0.46254726 -6.99560484 -0.18935472 0 0 Z " fill="#343434" transform="translate(169,296)"/>
<path d="M0 0 C-0.33 4.95 -0.66 9.9 -1 15 C-1.33 14.01 -1.66 13.02 -2 12 C-6.455 13.485 -6.455 13.485 -11 15 C-11 11.04 -11 7.08 -11 3 C-4.5 0 -4.5 0 0 0 Z " fill="#C5C5C5" transform="translate(277,241)"/>
<path d="M0 0 C2.64 0 5.28 0 8 0 C8.20496094 0.69867188 8.40992188 1.39734375 8.62109375 2.1171875 C8.89050781 3.02726562 9.15992188 3.93734375 9.4375 4.875 C9.83775391 6.23238281 9.83775391 6.23238281 10.24609375 7.6171875 C10.92613826 9.98275381 10.92613826 9.98275381 12 12 C12.99 12.33 13.98 12.66 15 13 C15.33 11.68 15.66 10.36 16 9 C16.99 9.33 17.98 9.66 19 10 C18.25 15.75 18.25 15.75 16 18 C13.125 18 13.125 18 10 17 C5.77912026 12.43688676 5.26471856 7.95616765 5 2 C3.35 1.67 1.7 1.34 0 1 C0 0.67 0 0.34 0 0 Z " fill="#B8B8B8" transform="translate(120,267)"/>
<path d="M0 0 C2.46800047 1.15173355 4.04783565 2.04783565 6 4 C6.33 4 6.66 4 7 4 C6.46257907 10.23408282 5.83685611 15.56840905 0.8125 19.875 C0.214375 20.24625 -0.38375 20.6175 -1 21 C-1.66 20.34 -2.32 19.68 -3 19 C-2.505 18.649375 -2.01 18.29875 -1.5 17.9375 C0.7627853 15.01473565 0.25246508 12.59762735 0 9 C-0.185625 8.29875 -0.37125 7.5975 -0.5625 6.875 C-1.14535945 4.37703091 -0.61480045 2.45920181 0 0 Z " fill="#3A3A3A" transform="translate(138,268)"/>
<path d="M0 0 C2.16873412 1.00691227 4.00180164 2.00144131 5.875 3.5 C11.29487286 7.32579261 17.58700892 7.51839197 24 8 C21.30110992 10.69889008 19.77157544 10.36189059 16 10.4375 C9.41885028 10.34984873 4.360237 8.85980555 -1 5 C-1.66 4.01 -2.32 3.02 -3 2 C-2.01 2 -1.02 2 0 2 C0 1.34 0 0.68 0 0 Z " fill="#363636" transform="translate(101,289)"/>
<path d="M0 0 C2.875 0.25 2.875 0.25 3.875 1.25 C3.51976021 7.64431616 3.51976021 7.64431616 0.8125 10.1875 C0.173125 10.538125 -0.46625 10.88875 -1.125 11.25 C-3.6 7.29 -3.6 7.29 -6.125 3.25 C-3.125 0.25 -3.125 0.25 0 0 Z " fill="#EFEFEF" transform="translate(194.125,313.75)"/>
<path d="M0 0 C0.75482666 0.0093457 1.50965332 0.01869141 2.28735352 0.02832031 C3.11686523 0.03347656 3.94637695 0.03863281 4.80102539 0.04394531 C6.09556641 0.07488281 6.09556641 0.07488281 7.41625977 0.10644531 C8.27541992 0.11160156 9.13458008 0.11675781 10.01977539 0.12207031 C13.85121114 0.16962886 17.2742839 0.30837531 20.97875977 1.35644531 C20.97875977 2.01644531 20.97875977 2.67644531 20.97875977 3.35644531 C12.39875977 3.35644531 3.81875977 3.35644531 -5.02124023 3.35644531 C-2.02124023 0.35644531 -2.02124023 0.35644531 0 0 Z " fill="#BFBFBF" transform="translate(90.021240234375,313.6435546875)"/>
<path d="M0 0 C0.66 0.33 1.32 0.66 2 1 C-4.8569646 6.87441175 -11.68643939 12.69408348 -19 18 C-19.33 16.35 -19.66 14.7 -20 13 C-16.00911757 10.3194573 -12.00763511 7.65542571 -8 5 C-7.17242187 4.44570312 -6.34484375 3.89140625 -5.4921875 3.3203125 C-3.70109477 2.1504844 -1.85529559 1.0650771 0 0 Z " fill="#474747" transform="translate(262,212)"/>
<path d="M0 0 C0 0.33 0 0.66 0 1 C-4.455 1.495 -4.455 1.495 -9 2 C-8.67 2.66 -8.34 3.32 -8 4 C-15.92 4.99 -23.84 5.98 -32 7 C-32 6.34 -32 5.68 -32 5 C-28.54598737 4.14805251 -25.08625293 3.32199203 -21.625 2.5 C-20.65949219 2.26152344 -19.69398438 2.02304687 -18.69921875 1.77734375 C-12.35467365 0.28701436 -6.51234393 -0.32177379 0 0 Z " fill="#BDBDBD" transform="translate(294,299)"/>
<path d="M0 0 C9.79498505 -0.93384391 17.90091845 1.80333396 27 5 C27 5.99 27 6.98 27 8 C25.88625 7.5875 24.7725 7.175 23.625 6.75 C15.93836503 4.16303267 7.9219104 2.68351278 0 1 C0 0.67 0 0.34 0 0 Z " fill="#B8B8B8" transform="translate(261,320)"/>
<path d="M0 0 C2.31 0 4.62 0 7 0 C7.66 1.32 8.32 2.64 9 4 C8 5 8 5 5.93359375 5.09765625 C5.10988281 5.08605469 4.28617187 5.07445312 3.4375 5.0625 C2.61121094 5.05347656 1.78492187 5.04445313 0.93359375 5.03515625 C0.29550781 5.02355469 -0.34257813 5.01195312 -1 5 C-1.33 6.32 -1.66 7.64 -2 9 C-2.33 7.02 -2.66 5.04 -3 3 C-2.34 3 -1.68 3 -1 3 C-0.67 2.01 -0.34 1.02 0 0 Z " fill="#EBEBEB" transform="translate(120,262)"/>
<path d="M0 0 C4.01318145 2.00659073 4.92081425 2.85549463 7.25 6.4375 C7.77078125 7.21996094 8.2915625 8.00242188 8.828125 8.80859375 C10 11 10 11 10 14 C9.01 14 8.02 14 7 14 C6.67 14.99 6.34 15.98 6 17 C4.02 11.39 2.04 5.78 0 0 Z " fill="#4B4B4B" transform="translate(137,235)"/>
<path d="M0 0 C-0.875 3.875 -0.875 3.875 -2 5 C-4.67058851 5.14115161 -7.32432238 5.04247107 -10 5 C-9.625 2.5625 -9.625 2.5625 -9 0 C-5.93109813 -1.53445094 -3.29905734 -0.54984289 0 0 Z " fill="#F1F1F1" transform="translate(231,268)"/>
<path d="M0 0 C4.42372125 5.0338897 6.99350717 10.35714731 8 17 C7.34 17 6.68 17 6 17 C5.67 17.66 5.34 18.32 5 19 C4.16142312 16.39741676 3.32896656 13.79314353 2.5 11.1875 C2.14228516 10.08051758 2.14228516 10.08051758 1.77734375 8.95117188 C0.80059864 5.86744804 0 3.25504191 0 0 Z " fill="#C4C4C4" transform="translate(100,73)"/>
<path d="M0 0 C2.3125 0.125 2.3125 0.125 5 1 C6.8125 4.0625 6.8125 4.0625 8 7 C6.02 7.99 6.02 7.99 4 9 C1.67281553 6.88437775 0.14186589 4.94982021 -1 2 C-0.67 1.34 -0.34 0.68 0 0 Z " fill="#3A3A3A" transform="translate(156,347)"/>
<path d="M0 0 C0.66 0.33 1.32 0.66 2 1 C0.80185985 4.0809318 -0.4289611 5.69506712 -3.35546875 7.2578125 C-5.8940835 8.30549478 -8.34386075 9.29837831 -11 10 C-11.66 9.67 -12.32 9.34 -13 9 C-9.25 6 -9.25 6 -7 6 C-6.67 5.01 -6.34 4.02 -6 3 C-3.0625 1.25 -3.0625 1.25 0 0 Z " fill="#DFDFDF" transform="translate(140,295)"/>
<path d="M0 0 C-10.19680851 4.77628285 -10.19680851 4.77628285 -14 5 C-14.99 4.34 -15.98 3.68 -17 3 C-4.25 -1.41666667 -4.25 -1.41666667 0 0 Z " fill="#C5C5C5" transform="translate(112,329)"/>
<path d="M0 0 C1.26328125 0.20367187 2.5265625 0.40734375 3.828125 0.6171875 C4.79234375 0.78476562 5.7565625 0.95234375 6.75 1.125 C4.75 3.125 4.75 3.125 1.81640625 3.390625 C0.66011719 3.38546875 -0.49617188 3.3803125 -1.6875 3.375 C-3.41806641 3.38273437 -3.41806641 3.38273437 -5.18359375 3.390625 C-8.25 3.125 -8.25 3.125 -11.25 1.125 C-7.42040067 -1.48609045 -4.4238461 -0.73730768 0 0 Z " fill="#525252" transform="translate(118.25,295.875)"/>
<path d="M0 0 C0 3.32058331 -0.43061972 5.08543662 -2 8 C-3.64034193 8.72904086 -5.31301918 9.38655243 -7 10 C-9.11290275 11.56106226 -11.02821359 13.25749108 -13 15 C-11.38989473 10.92623969 -8.46177729 8.23492931 -5.375 5.25 C-4.859375 4.74339844 -4.34375 4.23679687 -3.8125 3.71484375 C-2.54616661 2.47196098 -1.2736856 1.23534724 0 0 Z " fill="#BCBCBC" transform="translate(317,85)"/>
<path d="M0 0 C0.66 0 1.32 0 2 0 C3.6875 2.375 3.6875 2.375 5 5 C4.67 5.66 4.34 6.32 4 7 C2.35 6.67 0.7 6.34 -1 6 C-1 2 -1 2 0 0 Z " fill="#2D2D2D" transform="translate(97,284)"/>
<path d="M0 0 C0.99 0.33 1.98 0.66 3 1 C3.28571429 8.42857143 3.28571429 8.42857143 1 12 C-1.83022097 8.00439392 -0.76210446 4.57262677 0 0 Z " fill="#6F6F6F" transform="translate(138,268)"/>
<path d="M0 0 C0.66 0.33 1.32 0.66 2 1 C-2.29 5.29 -6.58 9.58 -11 14 C-11.33 13.01 -11.66 12.02 -12 11 C-11.30132812 10.37351563 -10.60265625 9.74703125 -9.8828125 9.1015625 C-8.97273438 8.28429687 -8.06265625 7.46703125 -7.125 6.625 C-5.76761719 5.40683594 -5.76761719 5.40683594 -4.3828125 4.1640625 C-2.89103817 2.80923795 -1.42494565 1.42494565 0 0 Z " fill="#F1F1F1" transform="translate(113,166)"/>
<path d="M0 0 C0.66 0.33 1.32 0.66 2 1 C0.94434467 4.28426103 -0.61660352 5.57151556 -3.5 7.25 C-7 9 -7 9 -9 9 C-7.48328036 4.44984107 -3.83108947 2.49942736 0 0 Z " fill="#BBBBBB" transform="translate(54,323)"/>
<path d="M0 0 C0 0.33 0 0.66 0 1 C-5.61 1.66 -11.22 2.32 -17 3 C-17 2.34 -17 1.68 -17 1 C-11.02197063 -1.20927172 -6.26039609 -0.93213141 0 0 Z " fill="#CBCBCB" transform="translate(279,303)"/>
<path d="M0 0 C2.64 0 5.28 0 8 0 C8.33 1.65 8.66 3.3 9 5 C8.34 5 7.68 5 7 5 C7 6.98 7 8.96 7 11 C4.70986347 7.5647952 4.82157027 6.014669 5 2 C3.35 1.67 1.7 1.34 0 1 C0 0.67 0 0.34 0 0 Z " fill="#818181" transform="translate(120,267)"/>
<path d="M0 0 C0.66 0.33 1.32 0.66 2 1 C1.175 1.763125 0.35 2.52625 -0.5 3.3125 C-3.34055197 5.75434142 -3.34055197 5.75434142 -3 9 C-4.65 9 -6.3 9 -8 9 C-6.4169423 4.7257442 -3.49431596 2.73468206 0 0 Z " fill="#BDBDBD" transform="translate(237,234)"/>
<path d="M0 0 C0.66 0.33 1.32 0.66 2 1 C-1.97014925 8.65671642 -1.97014925 8.65671642 -6 10 C-6.99 10.495 -6.99 10.495 -8 11 C-6.63629701 8.00779732 -5.05091917 5.70973471 -2.875 3.25 C-2.33617187 2.63640625 -1.79734375 2.0228125 -1.2421875 1.390625 C-0.62730469 0.70226562 -0.62730469 0.70226562 0 0 Z " fill="#646464" transform="translate(193,237)"/>
<path d="M0 0 C0.33 0 0.66 0 1 0 C1.20674944 5.78898419 0.59162079 10.42932723 -1 16 C-2.0625 14.1875 -2.0625 14.1875 -3 12 C-2.67 11.01 -2.34 10.02 -2 9 C-1.63109697 7.44091346 -1.27784121 5.87806959 -0.9375 4.3125 C-0.76089844 3.50425781 -0.58429688 2.69601562 -0.40234375 1.86328125 C-0.26957031 1.24839844 -0.13679687 0.63351562 0 0 Z " fill="#727272" transform="translate(251,260)"/>
<path d="M0 0 C1.2065625 0.0309375 1.2065625 0.0309375 2.4375 0.0625 C1.7775 1.3825 1.1175 2.7025 0.4375 4.0625 C-1.5425 4.0625 -3.5225 4.0625 -5.5625 4.0625 C-5.8925 3.4025 -6.2225 2.7425 -6.5625 2.0625 C-5.5725 1.7325 -4.5825 1.4025 -3.5625 1.0625 C-2.5625 0.0625 -2.5625 0.0625 0 0 Z " fill="#282828" transform="translate(196.5625,323.9375)"/>
<path d="M0 0 C0.66 0.33 1.32 0.66 2 1 C1.60196439 3.88575819 1.20990931 4.82189513 -1.0625 6.75 C-1.701875 7.1625 -2.34125 7.575 -3 8 C-3.33 6.35 -3.66 4.7 -4 3 C-2.68 2.01 -1.36 1.02 0 0 Z " fill="#525252" transform="translate(246,222)"/>
<path d="M0 0 C0.66 0.33 1.32 0.66 2 1 C-1.96 4.465 -1.96 4.465 -6 8 C-6.66 7.01 -7.32 6.02 -8 5 C-6.71475739 4.13619741 -5.42157581 3.28419631 -4.125 2.4375 C-3.04605469 1.72400391 -3.04605469 1.72400391 -1.9453125 0.99609375 C-1.30335938 0.66738281 -0.66140625 0.33867187 0 0 Z " fill="#767676" transform="translate(262,212)"/>
<path d="M0 0 C2.31 1.98 4.62 3.96 7 6 C6.34 7.32 5.68 8.64 5 10 C4.16121545 8.71186658 3.32913217 7.41936744 2.5 6.125 C2.0359375 5.40570313 1.571875 4.68640625 1.09375 3.9453125 C0 2 0 2 0 0 Z " fill="#5F5F5F" transform="translate(92,215)"/>
<path d="M0 0 C4 2 4 2 5.25 4.625 C5.4975 5.40875 5.745 6.1925 6 7 C5.34 7 4.68 7 4 7 C3.67 7.66 3.34 8.32 3 9 C2.01 6.03 1.02 3.06 0 0 Z " fill="#6E6E6E" transform="translate(137,235)"/>
<path d="M0 0 C2 3 2 3 3 6 C2.01 6.99 1.02 7.98 0 9 C-1.125 2.25 -1.125 2.25 0 0 Z " fill="#767676" transform="translate(229,272)"/>
<path d="M0 0 C-3.4352048 2.29013653 -4.985331 2.17842973 -9 2 C-8 0 -8 0 -6.1875 -0.6875 C-3.81180233 -1.02688538 -2.26664171 -0.72856341 0 0 Z " fill="#525252" transform="translate(163,299)"/>
</svg>
